<svg width="925" height="551" viewBox="0 0 925 551" fill="none" xmlns="http://www.w3.org/2000/svg">
<path d="M212.36 34.1595C264.059 59.2331 310.541 110.991 356.59 147.217C374.272 161.127 390.085 177.193 408.343 190.408C435.796 210.433 465.849 226.672 496.903 240.545C514.913 248.531 537.338 258.47 557.219 252.702C597.214 241.098 638.729 239.066 680.132 238.07C694.528 237.724 703.634 241.252 717.056 244.732C724.802 246.737 732.636 248.378 740.536 249.65C751.389 251.363 762.314 251.93 773.255 252.961C797.151 255.211 821.032 257.271 844.608 261.944C851.596 263.374 860.235 265.937 861.875 273.88C863.184 280.248 862.114 287.033 858.357 292.416C851.497 302.244 841.762 310.641 829.678 313.158C814.33 316.354 799.059 320.884 783.203 318.657C777.056 317.716 770.961 316.26 764.91 314.778C753.003 311.865 742.121 310.216 729.879 309.86C719.243 309.548 708.222 310.943 703.215 322.01C706.601 332.081 709.226 341.394 707.288 352.217C711.045 359.848 715.108 368.776 719.96 375.688C722.137 378.782 728.39 383.079 731.581 385.799C734.959 388.679 737.897 392.159 741.003 395.003C745.4 399.031 748.834 405.311 752.804 408.576C754.848 410.257 762.759 413.181 765.634 414.7C778.77 421.637 798.254 431.716 806.75 443.731C823.572 449.23 842.115 451.485 858.769 458.106C861.044 459.011 863.331 460.718 865.68 461.51C869.474 462.621 873.834 462.77 877.646 463.623C883.186 464.858 889.315 467.542 894.572 469.082C910.203 473.655 929.29 478.573 924.144 499.33C920.42 514.352 891.506 504.608 888.039 508.16C888.925 509.395 894.601 511.033 896.329 511.821C904.443 515.507 916.949 522.768 915.273 533.246C914.641 537.183 911.696 542.457 908.288 544.709C900.924 549.58 889.322 547.342 881.657 547.934C873.687 548.552 866.643 550.974 858.03 551C851.515 551.021 848.012 549.816 842.082 549.354C833.391 548.683 824.826 548.454 816.095 547.571C807.654 546.725 799.923 545.417 791.592 544.095C786.306 543.26 780.615 543.031 775.277 542.061C772.053 541.477 766.351 539.141 763.609 539.094C757.219 538.988 752.65 542.501 745.738 539.824C735.173 535.734 724.633 529.723 714.545 524.606C693.583 513.971 673.242 501.905 651.604 492.694C648.564 491.401 641.961 488.645 638.98 488.329C630.914 487.482 621.896 487.987 614.716 483.197C610.944 480.679 605.136 474.124 601.699 470.553C597.614 466.322 593.309 462.305 588.802 458.513C580.983 452.052 572.727 446.858 564.764 440.821C536.237 419.211 507.048 398.501 474.654 382.865C469.542 380.395 464.326 377.602 458.793 376.051C447.202 373.171 436.598 374.035 425.671 368.195C418.115 364.16 412.982 359.26 406.277 354.215C386.822 339.574 364.925 327.53 343.739 315.617C325.676 305.455 306.783 297.428 287.825 289.248C273.296 282.936 258.726 276.714 244.116 270.585C233.78 266.269 222.441 261.854 212.36 257.219L0 168.425L50.9611 58.4243C50.9611 58.4243 110.613 -3.85537 137.655 0.188762C164.697 4.2329 212.36 34.1595 212.36 34.1595Z" fill="#121211ff"/>
</svg>
