<svg width="380" height="536" viewBox="0 0 380 536" fill="none" xmlns="http://www.w3.org/2000/svg">
<path d="M130.116 43.913C148.573 73.1096 158.481 116.059 171.742 150.007C176.834 163.041 180.558 176.771 186.078 189.575C194.344 208.915 204.692 226.838 216.051 243.696C222.652 253.439 230.872 265.568 241.497 267.987C262.871 272.854 282.766 283.629 302.37 294.963C309.187 298.905 312.641 303.54 318.127 309.388C321.293 312.761 324.584 315.951 327.99 318.95C332.677 323.05 337.661 326.515 342.545 330.25C353.214 338.407 363.919 346.45 373.883 355.9C376.827 358.727 380.283 362.676 379.233 367.687C378.388 371.704 376.334 375.274 373.344 377.271C367.884 380.916 361.407 382.918 355.175 380.882C347.26 378.296 339.077 376.494 332.165 370.663C329.504 368.358 326.985 365.773 324.492 363.186C319.586 358.097 314.87 354.026 309.222 350.303C304.316 347.066 298.839 344.695 293.963 349.581C293.242 356.311 292.34 362.389 288.956 368.019C288.968 373.461 288.826 379.732 289.515 385.078C289.825 387.473 291.768 391.727 292.639 394.199C293.561 396.817 294.14 399.651 294.943 402.169C296.079 405.736 296.248 410.313 297.359 413.321C297.931 414.87 300.964 418.816 301.962 420.51C306.522 428.252 313.334 439.616 314.561 448.926C321.175 456.906 329.337 463.527 335.616 472.1C336.474 473.271 337.154 474.904 338.072 476.032C339.593 477.758 341.6 479.097 343.188 480.681C345.499 482.98 347.753 486.276 349.86 488.668C356.13 495.776 363.937 504.075 356.778 514.46C351.597 521.976 340.295 508.093 337.86 509.127C337.992 510.087 340.273 512.656 340.902 513.603C343.855 518.043 348.047 525.789 344.864 531.297C343.667 533.365 341.082 535.533 338.971 535.841C334.411 536.507 329.493 531.893 325.77 530.027C321.898 528.089 318.047 527.448 314.01 524.986C310.957 523.126 309.593 521.429 306.923 519.461C303.01 516.578 299.053 513.984 295.169 510.969C291.412 508.059 288.093 505.088 284.497 501.938C282.214 499.94 279.603 498.173 277.327 496.084C275.952 494.823 273.818 491.848 272.545 491.033C269.579 489.136 266.636 489.829 264.014 486.312C260.005 480.937 256.448 474.47 252.898 468.645C245.522 456.539 238.764 443.793 230.745 432.307C229.618 430.694 227.158 427.22 225.835 426.182C222.254 423.379 217.918 421.075 215.654 416.272C214.465 413.749 213.247 408.331 212.456 405.302C211.512 401.709 210.417 398.175 209.176 394.712C206.995 388.77 204.32 383.428 201.974 377.688C193.57 357.133 184.649 336.903 173.066 318.651C171.239 315.769 169.437 312.673 167.202 310.196C162.437 305.217 157.276 302.662 153.499 296.182C150.886 291.703 149.605 287.426 147.621 282.615C141.867 268.652 134.375 255.472 127.187 242.571C121.059 231.569 114.054 221.548 107.053 211.422C101.698 203.636 96.3033 195.891 90.8685 188.187C87.0187 182.748 82.7223 176.964 79.0651 171.416L0 59.6029L49.0256 11.3777C49.0256 11.3777 91.1968 -7.07104 102.927 3.01578C114.658 13.1026 130.116 43.913 130.116 43.913Z" fill="#121211ff"/>
</svg>
