<svg width="341" height="524" viewBox="0 0 341 524" fill="none" xmlns="http://www.w3.org/2000/svg">
<path d="M17.9854 24.7814C19.0036 25.9398 19.464 26.7289 20.8909 27.4864L20.7575 27.8534C17.6099 26.3842 14.0538 24.2857 10.4779 25.7038C5.30594 27.7551 1.59312 35.6063 3.87207 40.7392C7.1471 48.1156 13.8575 55.6676 21.8081 57.4638C26.2833 58.4748 30.7684 59.3899 35.1137 60.8088C38.5899 61.9395 40.9038 65.101 43.8729 67.0099C49.4949 70.6243 57.9345 74.233 61.9533 79.9394C64.5066 83.5648 66.6119 91.5933 69.4722 95.5635C70.3895 96.8368 71.0415 98.7976 72.1059 100.226C69.08 98.9568 62.8812 95.4295 59.8733 95.1191C53.3517 94.446 46.1274 95.0558 39.4711 94.6348C35.6869 94.3955 31.6476 93.6091 27.9124 93.5544C24.3987 93.503 20.2127 95.1676 16.6628 95.5236C13.0351 96.2021 7.65758 95.2375 4.26534 96.3089C0.325181 97.9358 -0.837455 105.59 0.580037 108.769C4.48308 117.523 18.5643 120.975 27.2056 119.653C34.9292 118.471 35.1292 120.321 41.9559 121.807C44.0867 122.283 46.241 122.656 48.4123 122.927C50.0972 123.125 52.2654 123.251 53.8796 123.549C55.3624 124.907 57.0003 126.688 58.4462 127.928C62.3059 131.235 68.0395 134.69 72.8592 136.264C72.5963 141.121 78.323 155.325 81.7186 158.285C88.8522 164.505 87.6929 171.267 89.5994 180.352C80.4256 173.83 72.6923 169.248 61.2358 167.953C49.4852 166.625 43.4615 169.013 36.6432 179.531C34.2516 183.22 31.7657 188.181 32.5258 192.727C33.5858 198.765 39.7228 202.664 44.3038 205.804C55.9938 213.816 70.6361 215.948 82.3477 223.965C89.0266 228.539 91.6088 236.366 98.1733 241.325C104.031 245.749 109.824 248.717 116.356 251.883C119.178 253.251 121.94 255.936 124.572 257.671C128.508 260.818 134.033 263.961 137.337 267.852C143.681 275.322 158.697 288.176 162.475 297.544C170.78 309.478 174.237 317.475 178.83 333.455C185.052 344.925 194.5 374.742 198.473 387.529C201.633 394.778 204.794 403.059 207.665 410.403C214.025 431.604 220.406 452.777 233.201 479.172C242.626 495.854 245.865 499.377 265.631 523.768L298.61 493.25L340.525 447.956C328.619 417.273 302.416 380.634 205.458 247.22C205.458 247.22 197.961 235.293 194.433 229.181L194.244 228.821C189.81 220.356 185.431 211.995 180.34 203.93C170.254 187.951 162.358 170.686 157.566 152.067C155.92 146.092 154.685 139.743 152.434 133.983C150.628 129.645 149.214 125.994 148.585 121.22C147.389 112.149 141.828 103.461 136.049 96.903C132.634 93.027 129.027 88.9829 126.028 84.775C120.44 76.9334 116.07 68.0886 110.204 60.4862C108.723 58.5666 107.254 56.6485 105.929 54.6053C102.838 50.0535 100.741 44.6372 96.6744 40.9111C93.392 37.862 89.5636 36.0629 85.8888 33.6026C81.3712 30.5912 77.1043 27.208 72.5479 24.2733C69.4725 22.2925 65.8348 20.7397 62.7511 18.7584C60.0868 17.0468 57.7727 14.6702 55.1245 12.8698C52.0232 10.7562 48.5625 9.24717 44.9045 8.41331C42.756 7.92579 40.2343 7.58767 38.2227 6.76176C34.4042 5.08292 30.8246 3.17802 26.957 1.57329C22.3254 -0.348252 17.918 -1.42349 14.5043 3.91039C9.93934 11.0432 13.104 19.2276 17.9854 24.7814Z" fill="#121211ff"/>
</svg>
