<svg width="927" height="685" viewBox="0 0 927 685" fill="none" xmlns="http://www.w3.org/2000/svg">
<path d="M22.6397 45.9956C25.3588 47.1731 26.7913 48.136 29.939 48.3805L29.9798 49.0683C23.191 48.8568 15.1851 47.9058 9.83579 52.6772C2.09887 59.5784 1.42757 74.8872 9.4578 81.6458C20.9979 91.3585 38.8546 98.9839 54.5369 96.4098C63.3641 94.9606 72.1358 93.349 81.0414 92.6517C88.1625 92.0868 94.7466 95.6212 101.551 96.6696C114.435 98.6547 132.384 98.685 143.985 105.173C151.355 109.295 161.289 120.874 169.475 125.344C172.101 126.777 174.775 129.51 177.784 131.093C171.367 131.123 157.512 129.678 151.862 131.251C139.61 134.662 127.077 140.64 114.776 144.553C107.783 146.778 99.9125 148.29 93.149 150.781C86.7866 153.124 80.528 158.716 74.4123 161.745C68.4036 165.352 57.9881 167.5 52.7037 171.581C46.8587 176.943 50.626 190.172 55.6103 194.353C69.3345 205.867 97.3167 201.748 111.855 193.634C124.849 186.383 126.625 189.247 140.048 186.946C144.246 186.247 148.409 185.366 152.524 184.306C155.708 183.464 159.705 182.171 162.839 181.541C166.546 182.721 170.858 184.482 174.408 185.495C183.886 188.199 196.848 189.848 206.726 189.074C209.971 197.141 231.15 216.244 239.526 218.705C257.125 223.875 260.215 235.653 270.6 249.084C249.099 244.831 231.675 242.733 210.067 248.542C187.905 254.501 178.893 262.537 174.675 284.318C173.195 291.959 172.519 301.728 177.367 308.582C183.897 317.653 197.925 319.744 208.572 321.678C235.742 326.611 263.723 319.962 290.936 324.889C306.456 327.701 317.094 338.624 332.704 342.142C346.632 345.278 359.327 346.095 373.506 346.725C379.632 346.997 386.657 349.449 392.722 350.446C402.214 352.837 414.563 354.124 423.485 358.159C440.621 365.905 477.482 376.402 491.452 389C515.532 402.638 527.875 413.232 548.373 436C568.35 450.324 608.177 492.202 625.115 510.216C636.351 519.801 648.378 531.061 659.166 541C686.841 571.023 714.53 600.988 757.761 635C787.491 655.572 796.018 659.055 850.258 685L886.243 612.687L927 510.216C882.087 468.631 806.885 427.248 530.279 277.627C530.279 277.627 507.658 263.442 496.63 255.958L496.015 255.504C481.556 244.824 467.275 234.276 451.939 224.699C421.559 205.725 394.133 183.152 371.257 156.235C363.721 147.672 356.638 138.218 348.178 130.424C341.607 124.629 336.268 119.679 331.481 112.362C322.387 98.4636 305.727 88.2 290.309 81.545C281.195 77.6115 271.609 73.5372 262.992 68.7773C246.932 59.907 232.298 48.5664 215.922 40.2763C211.787 38.1829 207.676 36.0834 203.727 33.6815C194.681 28.427 186.76 21.0831 176.591 17.8422C168.35 15.1591 160.083 14.8823 151.587 13.426C141.152 11.6571 130.884 9.11156 120.438 7.49386C113.387 6.40222 105.653 6.39335 98.5866 5.30648C92.482 4.36773 86.4984 2.10786 80.3547 1.01385C73.1559 -0.27562 65.7731 -0.335552 58.552 0.836782C54.3124 1.52901 49.5157 2.72145 45.2636 2.7698C37.107 2.68127 29.2071 2.06086 21.0188 2.12658C11.2131 2.20557 2.45878 3.50355 0.398781 14.5193C-2.356 29.2503 9.60403 40.3509 22.6397 45.9956Z" fill="#121211ff"/>
</svg>
